<svg width="16" height="16" xmlns="http://www.w3.org/2000/svg">
 <g>
  <title>Layer 1</title>
  <path id="svg_66" d="m14.825,0.2l-13.65,0c-0.53893,0 -0.975,0.43607 -0.975,0.975l0,13.65c0,0.53893 0.43607,0.975 0.975,0.975l13.65,0c0.53893,0 0.975,-0.43607 0.975,-0.975l0,-13.65c0,-0.53893 -0.43607,-0.975 -0.975,-0.975zm-8.775,7.8c0,0 0.15423,-1.95 1.95,-1.95s1.95,1.95 1.95,1.95s0.05618,1.95 -1.95,1.95s-1.95,-1.95 -1.95,-1.95zm7.8,5.85l-11.7,0l0,-6.825l1.95,0l0.13806,0c-0.08093,0.31325 -0.13806,0.63603 -0.13806,0.975c0,2.15378 1.74622,3.9 3.9,3.9s3.9,-1.74622 3.9,-3.9c0,-0.33896 -0.05713,-0.66175 -0.13806,-0.975l0.13806,0l1.95,0l0,6.825zm0,-8.775l-2.925,0l0,-2.925l2.925,0l0,2.925z" clip-rule="evenodd" fill-rule="evenodd" fill="#7f7f7f"/>
 </g>
</svg>