<svg width="16" height="16" xmlns="http://www.w3.org/2000/svg">
 <g>
  <title>Layer 1</title>
  <g id="svg_1">
   <path fill="#7f7f7f" id="svg_2" d="m8,0c-4.418,0 -8,3.582 -8,8s3.582,8 8,8s8,-3.582 8,-8c0,-4.419 -3.582,-8 -8,-8zm4.915,9.791c-0.054,0.666 -0.559,1.516 -1.267,1.639c-2.263,0.175 -4.949,0.154 -7.295,0c-0.732,-0.092 -1.213,-0.974 -1.267,-1.639c-0.114,-1.398 -0.114,-2.194 0,-3.592c0.054,-0.665 0.547,-1.542 1.267,-1.622c2.319,-0.195 5.018,-0.153 7.295,0c0.816,0.03 1.213,0.869 1.267,1.535c0.113,1.398 0.113,2.281 0,3.679zm-5.915,0.209l3,-2l-3,-2l0,4z"/>
  </g>
 </g>
</svg>